
<svg fill="#FFFFFF" version="1.1" id="Capa_1" xmlns="http://www.w3.org/2000/svg" xmlns:xlink="http://www.w3.org/1999/xlink" 
	 width="30px" height="30px" viewBox="0 0 341.27 341.27"
	 xml:space="preserve">
<g>
	<path d="M308.986,190.622c-3.398,0-6.149,2.75-6.149,6.148c0,72.893-59.315,132.202-132.201,132.202
		c-72.896,0-132.202-59.31-132.202-132.202c0-70.826,56.013-128.649,126.053-131.892v45.805c0,2.018,0.985,3.909,2.657,5.056
		c1.033,0.718,2.258,1.093,3.492,1.093c0.732,0,1.465-0.129,2.177-0.394L311.16,64.172c2.396-0.897,3.975-3.197,3.975-5.755
		s-1.585-4.852-3.975-5.755L172.812,0.396c-1.897-0.711-4.008-0.454-5.669,0.694c-1.666,1.152-2.657,3.038-2.657,5.056v46.276
		C87.652,55.655,26.136,119.149,26.136,196.77c0,79.678,64.816,144.5,144.5,144.5c79.672,0,144.499-64.822,144.499-144.5
		C315.134,193.372,312.373,190.622,308.986,190.622z"/>
</g>

</svg>